<mxfile host="app.diagrams.net" modified="2021-09-14T14:02:32.864Z" agent="5.0 (Windows NT 10.0; Win64; x64) AppleWebKit/537.36 (KHTML, like Gecko) Chrome/92.0.4515.131 Safari/537.36 OPR/78.0.4093.186" etag="NvM7Fcnkp5tt3A7t2B3Z" version="15.2.5" type="github">
  <diagram id="NIeR_qIFmRhdvWZvgEUM" name="Page-1">
    <mxGraphModel dx="973" dy="568" grid="1" gridSize="10" guides="1" tooltips="1" connect="1" arrows="1" fold="1" page="1" pageScale="1" pageWidth="827" pageHeight="1169" math="0" shadow="0">
      <root>
        <mxCell id="0" />
        <mxCell id="1" parent="0" />
        <mxCell id="CvpwVbypXIwLcZDbLhmN-1" value="C_Temperature_Sensor" style="swimlane;fontStyle=1;align=center;verticalAlign=top;childLayout=stackLayout;horizontal=1;startSize=26;horizontalStack=0;resizeParent=1;resizeParentMax=0;resizeLast=0;collapsible=1;marginBottom=0;" parent="1" vertex="1">
          <mxGeometry x="410" y="630" width="400" height="112" as="geometry" />
        </mxCell>
        <mxCell id="CvpwVbypXIwLcZDbLhmN-10" value="- tamperature: vector&lt;C_Room&gt;" style="text;strokeColor=#d6b656;fillColor=#fff2cc;align=left;verticalAlign=top;spacingLeft=4;spacingRight=4;overflow=hidden;rotatable=0;points=[[0,0.5],[1,0.5]];portConstraint=eastwest;" parent="CvpwVbypXIwLcZDbLhmN-1" vertex="1">
          <mxGeometry y="26" width="400" height="26" as="geometry" />
        </mxCell>
        <mxCell id="CvpwVbypXIwLcZDbLhmN-3" value="" style="line;strokeWidth=1;fillColor=none;align=left;verticalAlign=middle;spacingTop=-1;spacingLeft=3;spacingRight=3;rotatable=0;labelPosition=right;points=[];portConstraint=eastwest;" parent="CvpwVbypXIwLcZDbLhmN-1" vertex="1">
          <mxGeometry y="52" width="400" height="8" as="geometry" />
        </mxCell>
        <mxCell id="IhB9DNKg_KkhCnSfU3_8-2" value="+ C_Temperature_Sensor(vector&lt;C_Room&gt;):" style="text;strokeColor=#d79b00;fillColor=#ffe6cc;align=left;verticalAlign=top;spacingLeft=4;spacingRight=4;overflow=hidden;rotatable=0;points=[[0,0.5],[1,0.5]];portConstraint=eastwest;" vertex="1" parent="CvpwVbypXIwLcZDbLhmN-1">
          <mxGeometry y="60" width="400" height="26" as="geometry" />
        </mxCell>
        <mxCell id="CvpwVbypXIwLcZDbLhmN-26" value="+ show_info(): void" style="text;strokeColor=#6c8ebf;fillColor=#dae8fc;align=left;verticalAlign=top;spacingLeft=4;spacingRight=4;overflow=hidden;rotatable=0;points=[[0,0.5],[1,0.5]];portConstraint=eastwest;" parent="CvpwVbypXIwLcZDbLhmN-1" vertex="1">
          <mxGeometry y="86" width="400" height="26" as="geometry" />
        </mxCell>
        <mxCell id="CvpwVbypXIwLcZDbLhmN-5" value="C_Air_Conditioning" style="swimlane;fontStyle=1;align=center;verticalAlign=top;childLayout=stackLayout;horizontal=1;startSize=26;horizontalStack=0;resizeParent=1;resizeParentMax=0;resizeLast=0;collapsible=1;marginBottom=0;" parent="1" vertex="1">
          <mxGeometry x="90" y="250" width="340" height="216" as="geometry" />
        </mxCell>
        <mxCell id="CvpwVbypXIwLcZDbLhmN-6" value="- power: string" style="text;strokeColor=#d6b656;fillColor=#fff2cc;align=left;verticalAlign=top;spacingLeft=4;spacingRight=4;overflow=hidden;rotatable=0;points=[[0,0.5],[1,0.5]];portConstraint=eastwest;" parent="CvpwVbypXIwLcZDbLhmN-5" vertex="1">
          <mxGeometry y="26" width="340" height="26" as="geometry" />
        </mxCell>
        <mxCell id="CvpwVbypXIwLcZDbLhmN-31" value="- future tamperature: float" style="text;strokeColor=#d6b656;fillColor=#fff2cc;align=left;verticalAlign=top;spacingLeft=4;spacingRight=4;overflow=hidden;rotatable=0;points=[[0,0.5],[1,0.5]];portConstraint=eastwest;" parent="CvpwVbypXIwLcZDbLhmN-5" vertex="1">
          <mxGeometry y="52" width="340" height="26" as="geometry" />
        </mxCell>
        <mxCell id="CvpwVbypXIwLcZDbLhmN-21" value="- temperature control: vector&lt;C_Temperature_Sensor&gt;" style="text;strokeColor=#d6b656;fillColor=#fff2cc;align=left;verticalAlign=top;spacingLeft=4;spacingRight=4;overflow=hidden;rotatable=0;points=[[0,0.5],[1,0.5]];portConstraint=eastwest;" parent="CvpwVbypXIwLcZDbLhmN-5" vertex="1">
          <mxGeometry y="78" width="340" height="26" as="geometry" />
        </mxCell>
        <mxCell id="CvpwVbypXIwLcZDbLhmN-7" value="" style="line;strokeWidth=1;fillColor=none;align=left;verticalAlign=middle;spacingTop=-1;spacingLeft=3;spacingRight=3;rotatable=0;labelPosition=right;points=[];portConstraint=eastwest;" parent="CvpwVbypXIwLcZDbLhmN-5" vertex="1">
          <mxGeometry y="104" width="340" height="8" as="geometry" />
        </mxCell>
        <mxCell id="CvpwVbypXIwLcZDbLhmN-13" value="+ C_Air_Conditioning():" style="text;strokeColor=#d79b00;fillColor=#ffe6cc;align=left;verticalAlign=top;spacingLeft=4;spacingRight=4;overflow=hidden;rotatable=0;points=[[0,0.5],[1,0.5]];portConstraint=eastwest;" parent="CvpwVbypXIwLcZDbLhmN-5" vertex="1">
          <mxGeometry y="112" width="340" height="26" as="geometry" />
        </mxCell>
        <mxCell id="IhB9DNKg_KkhCnSfU3_8-6" value="+ get_the_temperature(float): void" style="text;strokeColor=#6c8ebf;fillColor=#dae8fc;align=left;verticalAlign=top;spacingLeft=4;spacingRight=4;overflow=hidden;rotatable=0;points=[[0,0.5],[1,0.5]];portConstraint=eastwest;" vertex="1" parent="CvpwVbypXIwLcZDbLhmN-5">
          <mxGeometry y="138" width="340" height="26" as="geometry" />
        </mxCell>
        <mxCell id="CvpwVbypXIwLcZDbLhmN-32" value="+ power_On_or_Off(string): void" style="text;strokeColor=#6c8ebf;fillColor=#dae8fc;align=left;verticalAlign=top;spacingLeft=4;spacingRight=4;overflow=hidden;rotatable=0;points=[[0,0.5],[1,0.5]];portConstraint=eastwest;" parent="CvpwVbypXIwLcZDbLhmN-5" vertex="1">
          <mxGeometry y="164" width="340" height="26" as="geometry" />
        </mxCell>
        <mxCell id="IhB9DNKg_KkhCnSfU3_8-5" value="+ show_info(): void" style="text;strokeColor=#6c8ebf;fillColor=#dae8fc;align=left;verticalAlign=top;spacingLeft=4;spacingRight=4;overflow=hidden;rotatable=0;points=[[0,0.5],[1,0.5]];portConstraint=eastwest;" vertex="1" parent="CvpwVbypXIwLcZDbLhmN-5">
          <mxGeometry y="190" width="340" height="26" as="geometry" />
        </mxCell>
        <mxCell id="CvpwVbypXIwLcZDbLhmN-9" value="C_Room" style="swimlane;fontStyle=1;align=center;verticalAlign=top;childLayout=stackLayout;horizontal=1;startSize=26;horizontalStack=0;resizeParent=1;resizeParentMax=0;resizeLast=0;collapsible=1;marginBottom=0;" parent="1" vertex="1">
          <mxGeometry x="760" y="310" width="240" height="138" as="geometry" />
        </mxCell>
        <mxCell id="CvpwVbypXIwLcZDbLhmN-37" value="- tamperature: float" style="text;strokeColor=#d6b656;fillColor=#fff2cc;align=left;verticalAlign=top;spacingLeft=4;spacingRight=4;overflow=hidden;rotatable=0;points=[[0,0.5],[1,0.5]];portConstraint=eastwest;" parent="CvpwVbypXIwLcZDbLhmN-9" vertex="1">
          <mxGeometry y="26" width="240" height="26" as="geometry" />
        </mxCell>
        <mxCell id="CvpwVbypXIwLcZDbLhmN-11" value="" style="line;strokeWidth=1;fillColor=none;align=left;verticalAlign=middle;spacingTop=-1;spacingLeft=3;spacingRight=3;rotatable=0;labelPosition=right;points=[];portConstraint=eastwest;" parent="CvpwVbypXIwLcZDbLhmN-9" vertex="1">
          <mxGeometry y="52" width="240" height="8" as="geometry" />
        </mxCell>
        <mxCell id="CvpwVbypXIwLcZDbLhmN-39" value="+ C_Room():" style="text;strokeColor=#d79b00;fillColor=#ffe6cc;align=left;verticalAlign=top;spacingLeft=4;spacingRight=4;overflow=hidden;rotatable=0;points=[[0,0.5],[1,0.5]];portConstraint=eastwest;" parent="CvpwVbypXIwLcZDbLhmN-9" vertex="1">
          <mxGeometry y="60" width="240" height="26" as="geometry" />
        </mxCell>
        <mxCell id="CvpwVbypXIwLcZDbLhmN-45" value="+ C_Room(float):" style="text;strokeColor=#d79b00;fillColor=#ffe6cc;align=left;verticalAlign=top;spacingLeft=4;spacingRight=4;overflow=hidden;rotatable=0;points=[[0,0.5],[1,0.5]];portConstraint=eastwest;" parent="CvpwVbypXIwLcZDbLhmN-9" vertex="1">
          <mxGeometry y="86" width="240" height="26" as="geometry" />
        </mxCell>
        <mxCell id="IhB9DNKg_KkhCnSfU3_8-4" value="+ getTamperatureRoom(): float" style="text;strokeColor=#b85450;fillColor=#f8cecc;align=left;verticalAlign=top;spacingLeft=4;spacingRight=4;overflow=hidden;rotatable=0;points=[[0,0.5],[1,0.5]];portConstraint=eastwest;" vertex="1" parent="CvpwVbypXIwLcZDbLhmN-9">
          <mxGeometry y="112" width="240" height="26" as="geometry" />
        </mxCell>
        <mxCell id="CvpwVbypXIwLcZDbLhmN-30" value="" style="endArrow=diamondThin;endFill=0;endSize=24;html=1;exitX=0.475;exitY=0;exitDx=0;exitDy=0;exitPerimeter=0;entryX=1;entryY=0.5;entryDx=0;entryDy=0;" parent="1" source="CvpwVbypXIwLcZDbLhmN-1" target="CvpwVbypXIwLcZDbLhmN-21" edge="1">
          <mxGeometry width="160" relative="1" as="geometry">
            <mxPoint x="520" y="410" as="sourcePoint" />
            <mxPoint x="606" y="260" as="targetPoint" />
            <Array as="points">
              <mxPoint x="600" y="341" />
              <mxPoint x="480" y="341" />
            </Array>
          </mxGeometry>
        </mxCell>
        <mxCell id="CvpwVbypXIwLcZDbLhmN-36" value="" style="endArrow=diamondThin;endFill=0;endSize=24;html=1;entryX=0.576;entryY=-0.003;entryDx=0;entryDy=0;entryPerimeter=0;exitX=0.433;exitY=0.017;exitDx=0;exitDy=0;exitPerimeter=0;" parent="1" source="CvpwVbypXIwLcZDbLhmN-9" target="CvpwVbypXIwLcZDbLhmN-5" edge="1">
          <mxGeometry width="160" relative="1" as="geometry">
            <mxPoint x="830" y="160" as="sourcePoint" />
            <mxPoint x="990" y="160" as="targetPoint" />
            <Array as="points">
              <mxPoint x="864" y="160" />
              <mxPoint x="840" y="160" />
              <mxPoint x="286" y="160" />
            </Array>
          </mxGeometry>
        </mxCell>
        <mxCell id="IhB9DNKg_KkhCnSfU3_8-3" value="" style="endArrow=diamondThin;endFill=0;endSize=24;html=1;exitX=-0.005;exitY=0.108;exitDx=0;exitDy=0;entryX=1;entryY=0.5;entryDx=0;entryDy=0;exitPerimeter=0;" edge="1" parent="1" source="CvpwVbypXIwLcZDbLhmN-9">
          <mxGeometry width="160" relative="1" as="geometry">
            <mxPoint x="980" y="959" as="sourcePoint" />
            <mxPoint x="810" y="670" as="targetPoint" />
            <Array as="points">
              <mxPoint x="680" y="322" />
              <mxPoint x="680" y="560" />
              <mxPoint x="860" y="560" />
              <mxPoint x="860" y="670" />
            </Array>
          </mxGeometry>
        </mxCell>
      </root>
    </mxGraphModel>
  </diagram>
</mxfile>
